<svg width="49" height="49" viewBox="0 0 49 49" fill="none" xmlns="http://www.w3.org/2000/svg">
<circle cx="24.5" cy="24.5" r="24.5" fill="#434A4F"/>
<path fill-rule="evenodd" clip-rule="evenodd" d="M13.0171 14.7C13.1114 14.2286 13.57 13.9228 14.0415 14.0171L15.2597 14.2607C16.6355 14.5359 17.6704 15.6772 17.81 17.0733L17.909 18.0631H33.6677C35.9711 18.0631 37.6612 20.2277 37.1025 22.4623L35.7992 27.6756C35.2502 29.8718 33.2768 31.4125 31.013 31.4125H20.5738C18.9579 31.4125 17.5968 30.205 17.4043 28.6006L16.2557 19.0289L16.0774 17.2466C16.014 16.612 15.5436 16.0932 14.9182 15.9681L13.7 15.7245C13.2286 15.6302 12.9228 15.1715 13.0171 14.7ZM21.9961 26.3096C21.5819 26.3096 21.2461 26.6454 21.2461 27.0596C21.2461 27.4738 21.5819 27.8096 21.9961 27.8096H26.6394C27.0536 27.8096 27.3894 27.4738 27.3894 27.0596C27.3894 26.6454 27.0536 26.3096 26.6394 26.3096H21.9961Z" fill="white"/>
<ellipse cx="21.4151" cy="34.6045" rx="1.74124" ry="1.74124" fill="white"/>
<ellipse cx="31.8643" cy="34.6045" rx="1.74124" ry="1.74124" fill="white"/>
</svg>
