<?xml version="1.0" encoding="UTF-8" standalone="no"?>
<svg
   xmlns:dc="http://purl.org/dc/elements/1.1/"
   xmlns:cc="http://creativecommons.org/ns#"
   xmlns:rdf="http://www.w3.org/1999/02/22-rdf-syntax-ns#"
   xmlns:svg="http://www.w3.org/2000/svg"
   xmlns="http://www.w3.org/2000/svg"
   viewBox="0 0 800 401.14532"
   height="401.14532"
   width="800"
   xml:space="preserve"
   id="svg2"
   version="1.1"><metadata
     id="metadata8"><rdf:RDF><cc:Work
         rdf:about=""><dc:format>image/svg+xml</dc:format><dc:type
           rdf:resource="http://purl.org/dc/dcmitype/StillImage" /></cc:Work></rdf:RDF></metadata><defs
     id="defs6"><clipPath
       id="clipPath18"
       clipPathUnits="userSpaceOnUse"><path
         id="path16"
         d="M 0,300.859 H 600 V 0 H 0 Z" /></clipPath></defs><g
     transform="matrix(1.3333333,0,0,-1.3333333,0,401.14533)"
     id="g10"><g
       id="g12"><g
         clip-path="url(#clipPath18)"
         id="g14"><g
           transform="translate(84.6287,136.2121)"
           id="g20"><path
             id="path22"
             style="fill:#231f20;fill-opacity:1;fill-rule:nonzero;stroke:none"
             d="m 0,0 v -26.635 h 9.794 c 1.267,0 2.4,0.245 3.4,0.737 0.995,0.492 1.824,1.148 2.482,1.968 0.655,0.819 1.155,1.733 1.495,2.742 0.34,1.005 0.511,2.025 0.511,3.056 v 8.786 c 0,1.591 -0.228,2.975 -0.679,4.146 -0.454,1.17 -1.069,2.144 -1.838,2.916 -0.772,0.774 -1.655,1.347 -2.653,1.722 C 11.515,-0.187 10.473,0 9.386,0 Z M 0,39.287 V 15.321 h 8.16 c 0.816,0 1.713,0.117 2.686,0.352 0.976,0.234 1.881,0.644 2.721,1.23 0.84,0.586 1.552,1.393 2.142,2.424 0.59,1.031 0.883,2.343 0.883,3.936 v 7.169 c 0,3.045 -0.78,5.281 -2.346,6.711 -1.563,1.429 -3.525,2.144 -5.882,2.144 z m -16.728,14.408 c 0,0.843 0.204,1.511 0.611,2.003 0.408,0.492 1.02,0.737 1.835,0.737 H 8.364 c 3.719,0 7.13,-0.632 10.234,-1.897 3.107,-1.264 5.758,-2.999 7.959,-5.2 2.197,-2.204 3.909,-4.839 5.132,-7.907 1.226,-3.07 1.838,-6.385 1.838,-9.946 v -7.308 c 0,-2.063 -0.34,-3.996 -1.019,-5.798 C 31.825,16.574 30.977,14.97 29.955,13.564 28.936,12.16 27.802,10.987 26.557,10.05 25.31,9.113 24.119,8.527 22.986,8.294 23.983,8.012 25.185,7.439 26.59,6.572 c 1.405,-0.868 2.743,-2.073 4.012,-3.62 1.27,-1.546 2.346,-3.467 3.229,-5.763 0.887,-2.296 1.327,-5.014 1.327,-8.152 v -9.067 c 0,-3.514 -0.68,-6.723 -2.039,-9.628 -1.362,-2.905 -3.175,-5.412 -5.442,-7.52 -2.267,-2.109 -4.884,-3.737 -7.853,-4.884 -2.971,-1.149 -6.042,-1.722 -9.215,-1.722 h -24.891 c -1.631,0 -2.446,0.913 -2.446,2.74 z" /></g><g
           transform="translate(129.3086,189.9071)"
           id="g24"><path
             id="path26"
             style="fill:#231f20;fill-opacity:1;fill-rule:nonzero;stroke:none"
             d="M 0,0 C 0,0.843 0.215,1.511 0.644,2.003 1.076,2.495 1.699,2.74 2.514,2.74 h 38.765 c 0.634,0 1.131,-0.21 1.495,-0.632 0.362,-0.421 0.544,-1.078 0.544,-1.968 v -12.017 c 0,-0.844 -0.182,-1.477 -0.544,-1.898 -0.364,-0.421 -0.861,-0.633 -1.495,-0.633 H 17.476 v -23.755 h 18.497 c 0.636,0 1.167,-0.199 1.599,-0.597 0.429,-0.399 0.647,-1.066 0.647,-2.003 V -52.71 c 0,-0.891 -0.204,-1.547 -0.612,-1.968 -0.41,-0.422 -0.954,-0.632 -1.634,-0.632 H 17.476 v -25.02 h 24.075 c 0.587,0 1.088,-0.201 1.495,-0.599 0.408,-0.397 0.612,-1.018 0.612,-1.861 v -12.159 c 0,-0.891 -0.204,-1.536 -0.612,-1.933 -0.407,-0.398 -0.908,-0.597 -1.495,-0.597 H 2.514 c -1.677,0 -2.514,0.913 -2.514,2.74 z" /></g><g
           transform="translate(182.146,189.9071)"
           id="g28"><path
             id="path30"
             style="fill:#231f20;fill-opacity:1;fill-rule:nonzero;stroke:none"
             d="M 0,0 C 0,0.843 0.204,1.511 0.612,2.003 1.019,2.495 1.631,2.74 2.446,2.74 h 12.515 c 0.859,0 1.495,-0.245 1.903,-0.737 C 17.272,1.511 17.476,0.843 17.476,0 v -80.33 h 21.762 c 1.359,0 2.041,-0.821 2.041,-2.46 v -12.089 c 0,-1.734 -0.682,-2.6 -2.041,-2.6 H 2.446 c -1.631,0 -2.446,0.913 -2.446,2.74 z" /></g><g
           transform="translate(249.6756,175.4987)"
           id="g32"><path
             id="path34"
             style="fill:#231f20;fill-opacity:1;fill-rule:nonzero;stroke:none"
             d="m 0,0 v -65.922 h 9.046 c 2.583,0 4.635,0.867 6.154,2.6 1.517,1.733 2.278,3.888 2.278,6.465 v 47.651 c 0,3.092 -0.772,5.4 -2.313,6.922 C 13.624,-0.761 11.585,0 9.046,0 Z m -17.476,14.408 c 0,0.843 0.215,1.512 0.645,2.003 0.432,0.492 1.054,0.738 1.87,0.738 H 9.318 c 3.673,-0.047 7.073,-0.632 10.199,-1.757 3.129,-1.124 5.825,-2.765 8.095,-4.919 2.264,-2.156 4.045,-4.815 5.336,-7.977 1.294,-3.163 1.938,-6.807 1.938,-10.929 v -48.915 c 0,-4.171 -0.644,-7.837 -1.938,-10.998 -1.291,-3.164 -3.072,-5.834 -5.336,-8.014 -2.27,-2.178 -4.955,-3.83 -8.06,-4.954 -3.107,-1.125 -6.493,-1.71 -10.166,-1.757 h -24.347 c -1.677,0 -2.515,0.913 -2.515,2.741 z" /></g><g
           transform="translate(311.3555,116.8146)"
           id="g36"><path
             id="path38"
             style="fill:#231f20;fill-opacity:1;fill-rule:nonzero;stroke:none"
             d="m 0,0 c 0,-1.171 0.204,-2.284 0.612,-3.337 0.407,-1.055 0.997,-1.992 1.766,-2.812 0.772,-0.821 1.691,-1.475 2.757,-1.968 1.063,-0.492 2.278,-0.738 3.637,-0.738 1.315,0 2.517,0.246 3.604,0.738 1.088,0.493 2.017,1.147 2.789,1.968 0.769,0.82 1.359,1.757 1.767,2.812 0.408,1.053 0.612,2.166 0.612,3.337 v 51.376 c 0,1.17 -0.215,2.295 -0.645,3.372 -0.432,1.078 -1.043,2.027 -1.837,2.848 -0.794,0.818 -1.724,1.476 -2.786,1.967 -1.069,0.492 -2.235,0.738 -3.504,0.738 -1.27,0 -2.438,-0.246 -3.501,-0.738 C 4.205,59.072 3.276,58.414 2.482,57.596 1.688,56.775 1.076,55.826 0.647,54.748 0.215,53.671 0,52.546 0,51.376 Z m -17.41,52.359 c 0,3.89 0.69,7.391 2.074,10.508 1.383,3.115 3.264,5.75 5.645,7.906 2.379,2.155 5.146,3.806 8.297,4.955 3.15,1.147 6.515,1.722 10.098,1.722 3.58,0 6.969,-0.575 10.166,-1.722 3.197,-1.149 5.986,-2.8 8.367,-4.955 2.378,-2.156 4.259,-4.779 5.643,-7.871 1.384,-3.093 2.074,-6.607 2.074,-10.543 V -0.983 c 0,-3.89 -0.69,-7.38 -2.074,-10.471 -1.384,-3.093 -3.265,-5.719 -5.643,-7.872 -2.381,-2.156 -5.159,-3.808 -8.332,-4.955 -3.174,-1.148 -6.551,-1.722 -10.133,-1.722 -3.583,0 -6.959,0.587 -10.134,1.757 -3.172,1.17 -5.95,2.847 -8.329,5.025 -2.381,2.179 -4.262,4.814 -5.645,7.907 -1.384,3.091 -2.074,6.536 -2.074,10.331 z" /></g><g
           transform="translate(373.1034,116.8146)"
           id="g40"><path
             id="path42"
             style="fill:#d91e25;fill-opacity:1;fill-rule:nonzero;stroke:none"
             d="m 0,0 c 0,-1.171 0.204,-2.284 0.612,-3.337 0.407,-1.055 0.997,-1.992 1.766,-2.812 0.772,-0.821 1.691,-1.475 2.757,-1.968 1.063,-0.492 2.278,-0.738 3.637,-0.738 1.315,0 2.517,0.246 3.604,0.738 1.088,0.493 2.017,1.147 2.789,1.968 0.769,0.82 1.359,1.757 1.767,2.812 0.408,1.053 0.612,2.166 0.612,3.337 v 51.376 c 0,1.17 -0.215,2.295 -0.645,3.372 -0.432,1.078 -1.043,2.027 -1.837,2.848 -0.794,0.818 -1.724,1.476 -2.786,1.967 -1.069,0.492 -2.235,0.738 -3.504,0.738 -1.27,0 -2.438,-0.246 -3.501,-0.738 C 4.205,59.072 3.276,58.414 2.482,57.596 1.688,56.775 1.076,55.826 0.647,54.748 0.215,53.671 0,52.546 0,51.376 Z m -17.41,52.359 c 0,3.89 0.69,7.391 2.074,10.508 1.383,3.115 3.264,5.75 5.645,7.906 2.379,2.155 5.146,3.806 8.297,4.955 3.15,1.147 6.515,1.722 10.098,1.722 3.58,0 6.969,-0.575 10.166,-1.722 3.197,-1.149 5.986,-2.8 8.367,-4.955 2.378,-2.156 4.259,-4.779 5.643,-7.871 1.384,-3.093 2.074,-6.607 2.074,-10.543 V -0.983 c 0,-3.89 -0.69,-7.38 -2.074,-10.471 -1.384,-3.093 -3.265,-5.719 -5.643,-7.872 -2.381,-2.156 -5.159,-3.808 -8.332,-4.955 -3.174,-1.148 -6.551,-1.722 -10.133,-1.722 -3.583,0 -6.959,0.587 -10.134,1.757 -3.172,1.17 -5.95,2.847 -8.329,5.025 -2.381,2.179 -4.262,4.814 -5.645,7.907 -1.384,3.091 -2.074,6.536 -2.074,10.331 z" /></g><g
           transform="translate(436.4849,175.4987)"
           id="g44"><path
             id="path46"
             style="fill:#231f20;fill-opacity:1;fill-rule:nonzero;stroke:none"
             d="m 0,0 v -30.852 h 8.707 c 2.628,0 4.667,0.843 6.118,2.53 1.452,1.687 2.178,3.817 2.178,6.395 v 13.072 c 0,2.671 -0.761,4.814 -2.278,6.431 C 13.205,-0.808 11.175,0 8.639,0 Z m -17.476,14.408 c 0,0.843 0.215,1.512 0.645,2.003 0.432,0.492 1.054,0.738 1.87,0.738 H 8.707 c 3.672,0 7.081,-0.68 10.234,-2.038 3.15,-1.36 5.882,-3.222 8.193,-5.588 2.313,-2.367 4.115,-5.129 5.406,-8.293 1.294,-3.163 1.938,-6.548 1.938,-10.155 v -12.439 c 0,-4.78 -0.883,-8.891 -2.65,-12.335 -1.77,-3.444 -4.058,-6.267 -6.869,-8.468 L 35.432,-80.33 c 0.18,-0.656 0.123,-1.277 -0.171,-1.863 -0.296,-0.586 -0.758,-0.878 -1.394,-0.878 H 20.131 c -0.725,0 -1.247,0.152 -1.565,0.457 -0.318,0.305 -0.544,0.925 -0.68,1.862 l -7.616,32.821 c -0.365,-0.047 -0.726,-0.07 -1.088,-0.07 H 8.092 0 v -32.4 c 0,-1.781 -0.815,-2.67 -2.446,-2.67 h -12.515 c -1.677,0 -2.515,0.889 -2.515,2.67 z" /></g><g
           transform="translate(479.8709,120.6098)"
           id="g48"><path
             id="path50"
             style="fill:#231f20;fill-opacity:1;fill-rule:nonzero;stroke:none"
             d="m 0,0 c 0,1.218 0.147,2.097 0.443,2.636 0.294,0.538 0.941,0.808 1.938,0.808 h 12.376 c 1.044,0 1.71,-0.223 2.006,-0.667 0.294,-0.447 0.444,-1.207 0.444,-2.284 v -3.304 c 0,-1.827 0.282,-3.373 0.848,-4.638 0.568,-1.265 1.294,-2.274 2.177,-3.022 0.883,-0.75 1.846,-1.29 2.889,-1.617 1.044,-0.329 2.017,-0.492 2.925,-0.492 1.134,0 2.232,0.211 3.298,0.632 1.065,0.423 2.006,1.02 2.824,1.793 0.815,0.774 1.462,1.698 1.938,2.777 0.476,1.077 0.712,2.295 0.712,3.653 0,1.781 -0.215,3.374 -0.644,4.78 -0.432,1.406 -1.134,2.764 -2.109,4.076 -0.976,1.31 -2.235,2.681 -3.773,4.111 -1.544,1.429 -3.425,3.058 -5.646,4.885 -3.719,3.046 -6.981,5.738 -9.791,8.083 -2.814,2.341 -5.17,4.708 -7.073,7.097 -1.906,2.391 -3.344,5.026 -4.32,7.906 C 0.487,40.096 0,43.597 0,47.721 c 0,3.138 0.397,5.961 1.191,8.469 0.793,2.505 1.845,4.719 3.161,6.641 1.316,1.921 2.846,3.56 4.591,4.92 1.745,1.358 3.547,2.483 5.407,3.374 1.859,0.889 3.74,1.533 5.643,1.932 1.905,0.398 3.672,0.597 5.306,0.597 3.716,0 7.127,-0.632 10.234,-1.897 3.104,-1.266 5.782,-3.047 8.024,-5.342 2.246,-2.295 3.991,-5.059 5.238,-8.293 1.245,-3.233 1.871,-6.842 1.871,-10.822 v -4.218 c 0,-1.077 -0.172,-1.792 -0.511,-2.144 -0.34,-0.351 -1.101,-0.526 -2.278,-0.526 H 35.84 c -0.908,0 -1.498,0.187 -1.769,0.562 -0.272,0.375 -0.408,1.077 -0.408,2.108 v 4.148 c 0,1.264 -0.182,2.459 -0.544,3.583 -0.364,1.125 -0.883,2.108 -1.563,2.952 -0.682,0.843 -1.519,1.512 -2.517,2.003 -0.997,0.492 -2.131,0.738 -3.4,0.738 -0.908,0 -1.849,-0.165 -2.822,-0.492 -0.976,-0.329 -1.859,-0.868 -2.653,-1.617 -0.794,-0.75 -1.441,-1.711 -1.938,-2.881 -0.5,-1.171 -0.748,-2.601 -0.748,-4.286 0,-1.783 0.237,-3.339 0.715,-4.675 0.476,-1.336 1.156,-2.589 2.039,-3.76 0.883,-1.171 1.949,-2.297 3.197,-3.374 1.245,-1.077 2.661,-2.225 4.251,-3.443 3.354,-2.625 6.516,-5.154 9.487,-7.59 2.968,-2.437 5.575,-5.049 7.82,-7.836 2.243,-2.788 4.012,-5.893 5.303,-9.313 1.292,-3.42 1.939,-7.426 1.939,-12.017 0,-3.374 -0.637,-6.571 -1.906,-9.594 -1.269,-3.021 -3.058,-5.669 -5.371,-7.941 -2.313,-2.273 -5.089,-4.089 -8.332,-5.447 -3.24,-1.359 -6.858,-2.039 -10.845,-2.039 -4.263,0 -8.003,0.715 -11.221,2.144 -3.219,1.428 -5.907,3.339 -8.06,5.728 -2.153,2.389 -3.773,5.153 -4.86,8.293 C 0.544,-10.495 0,-7.215 0,-3.795 Z" /></g></g></g></g></svg>