<svg width="49" height="49" viewBox="0 0 49 49" fill="none" xmlns="http://www.w3.org/2000/svg">
<g id="Right">
<path id="Subtract" fill-rule="evenodd" clip-rule="evenodd" d="M24.5 2.14186e-06C38.031 9.58942e-07 49 10.969 49 24.5C49 38.031 38.031 49 24.5 49C10.969 49 7.13947e-06 38.031 5.95656e-06 24.5C4.77364e-06 10.969 10.969 3.32477e-06 24.5 2.14186e-06ZM26.7088 24.8262C26.9698 24.5839 26.9698 24.1708 26.7088 23.9285L20.0672 17.7614C19.3236 17.0708 19.2805 15.9082 19.9711 15.1645C20.6616 14.4209 21.8243 14.3778 22.5679 15.0683L29.2095 21.2355C31.0362 22.9318 31.0362 25.8229 29.2095 27.5192L22.5679 33.6864C21.8243 34.3769 20.6616 34.3338 19.9711 33.5902C19.2805 32.8465 19.3236 31.6839 20.0673 30.9933L26.7088 24.8262Z" fill="#434A4F"/>
</g>
</svg>
