<svg width="51" height="50" viewBox="0 0 51 50" fill="none" xmlns="http://www.w3.org/2000/svg">
<g id="whatsapp">
<g id="whatsapp_2">
<path fill-rule="evenodd" clip-rule="evenodd" d="M20.5157 33.8222C22.0743 34.7574 23.9447 35.225 25.815 35.225C31.5819 35.225 36.102 30.5491 36.102 25.0939C36.102 22.2884 35.1668 19.7946 33.1406 17.7684C31.1144 15.898 28.6205 14.807 25.815 14.807C20.2039 14.807 15.5281 19.4829 15.5281 25.0939C15.5281 26.9643 15.9956 28.8346 17.0867 30.5491L17.3984 31.0167L16.3074 34.7574L20.2039 33.6664L20.5157 33.8222ZM29.244 26.4967C29.5557 26.4967 31.1144 27.276 31.4261 27.4319C31.4746 27.4561 31.5232 27.4766 31.5711 27.4969C31.8311 27.6066 32.0738 27.7091 32.2054 28.367C32.3613 28.367 32.3612 28.9905 32.0495 29.7698C31.8937 30.3933 30.6468 31.1726 30.0233 31.1726C29.9177 31.1726 29.8165 31.1815 29.7085 31.1911C29.1788 31.2379 28.4833 31.2994 26.2826 30.3933C23.5511 29.3007 21.6574 26.6524 21.1256 25.9087C21.0505 25.8037 21.0025 25.7367 20.9832 25.7174C20.9567 25.6643 20.9031 25.5796 20.8323 25.4679C20.4875 24.9234 19.7364 23.7375 19.7364 22.4443C19.7364 20.8856 20.5157 20.1063 20.8274 19.7946C21.1391 19.4829 21.4508 19.4829 21.6067 19.4829H22.2302C22.386 19.4829 22.6978 19.4829 22.8536 19.9504C23.1653 20.5739 23.7888 22.1325 23.7888 22.2884C23.7888 22.3403 23.8061 22.3923 23.8234 22.4443C23.8581 22.5482 23.8927 22.6521 23.7888 22.756C23.7109 22.8339 23.6719 22.9118 23.6329 22.9898C23.594 23.0677 23.555 23.1456 23.4771 23.2236L23.0095 23.6911C22.8536 23.847 22.6978 24.0029 22.8536 24.3146C23.0095 24.6263 23.6329 25.7174 24.5681 26.4967C25.6204 27.4174 26.4506 27.7831 26.8715 27.9685C26.9494 28.0028 27.0132 28.031 27.0619 28.0553C27.3736 28.0553 27.5295 28.0553 27.6854 27.8995C27.7633 27.7436 27.9581 27.5098 28.153 27.276C28.3478 27.0422 28.5426 26.8084 28.6205 26.6525C28.7764 26.3408 28.9323 26.3408 29.244 26.4967Z" fill="url(#paint0_radial_7_31)"/>
<path fill-rule="evenodd" clip-rule="evenodd" d="M0.876953 7.79314C0.876953 3.48911 4.36606 0 8.6701 0H42.9599C47.264 0 50.7531 3.48911 50.7531 7.79314V42.083C50.7531 46.387 47.264 49.8761 42.9599 49.8761H8.6701C4.36606 49.8761 0.876953 46.387 0.876953 42.083V7.79314ZM25.815 12.469C29.0881 12.469 32.2054 13.7159 34.5433 16.0539C36.8813 18.3918 38.284 21.5091 38.284 24.7822C38.284 31.6402 32.673 37.2512 25.815 37.2512C23.7888 37.2512 21.7626 36.6278 19.8922 35.6926L13.346 37.4071L15.0605 31.1726C13.9694 29.3022 13.346 27.1201 13.346 24.9381C13.346 18.0801 18.957 12.469 25.815 12.469Z" fill="url(#paint1_radial_7_31)"/>
</g>
</g>
<defs>
<radialGradient id="paint0_radial_7_31" cx="0" cy="0" r="1" gradientUnits="userSpaceOnUse" gradientTransform="translate(42.1853) rotate(108.171) scale(52.4939)">
<stop stop-color="#48AF17"/>
<stop offset="1" stop-color="#62CB2F"/>
</radialGradient>
<radialGradient id="paint1_radial_7_31" cx="0" cy="0" r="1" gradientUnits="userSpaceOnUse" gradientTransform="translate(42.1853) rotate(108.171) scale(52.4939)">
<stop stop-color="#48AF17"/>
<stop offset="1" stop-color="#62CB2F"/>
</radialGradient>
</defs>
</svg>
