<svg width="49" height="49" viewBox="0 0 49 49" fill="none" xmlns="http://www.w3.org/2000/svg">
<g id="Left">
<path id="Subtract" fill-rule="evenodd" clip-rule="evenodd" d="M24.5 49C10.969 49 0 38.031 0 24.5C0 10.969 10.969 0 24.5 0C38.031 0 49 10.969 49 24.5C49 38.031 38.031 49 24.5 49ZM22.2971 24.1738C22.0361 24.4161 22.0361 24.8292 22.2971 25.0715L28.9386 31.2387C29.6823 31.9292 29.7253 33.0918 29.0348 33.8355C28.3443 34.5791 27.1816 34.6222 26.438 33.9317L19.7964 27.7645C17.9696 26.0682 17.9696 23.1771 19.7964 21.4808L26.438 15.3136C27.1816 14.6231 28.3443 14.6662 29.0348 15.4098C29.7253 16.1535 29.6823 17.3161 28.9386 18.0067L22.2971 24.1738Z" fill="#434A4F"/>
</g>
</svg>
