<svg width="48" height="48" viewBox="0 0 48 48" fill="none" xmlns="http://www.w3.org/2000/svg">
<g clip-path="url(#clip0_731_3159)">
<path d="M9.33333 48H38.6667C43.8213 48 48 43.8213 48 38.6667V9.33333C48 4.17867 43.8213 0 38.6667 0H9.33333C4.17867 0 0 4.17867 0 9.33333V38.6667C0 43.8213 4.17867 48 9.33333 48Z" fill="#62CB2F"/>
<path d="M39.2669 33.3882L33.1176 29.3202C32.3669 28.8656 31.4282 28.8576 30.6696 29.2976C30.6696 29.2976 30.6696 29.2976 28.0322 30.8349C27.6789 31.0402 27.3389 31.0789 27.0642 31.0282C26.7149 30.9642 26.4749 30.7736 26.4589 30.7602C25.0096 29.6976 23.3162 28.2909 21.5109 26.4869C19.7069 24.6829 18.3002 22.9896 17.2376 21.5389C17.2256 21.5216 17.0336 21.2816 16.9696 20.9336C16.9202 20.6589 16.9576 20.3202 17.1629 19.9656C18.7002 17.3282 18.7002 17.3282 18.7002 17.3282C19.1416 16.5696 19.1322 15.6296 18.6776 14.8802L14.6096 8.73089C14.1056 7.96956 13.0749 7.76822 12.3242 8.28822C12.3242 8.28822 10.3976 9.60689 9.76158 10.0549C8.74291 10.7722 8.41491 11.8629 8.41358 13.3829C8.41091 15.5216 10.2536 22.2216 18.0149 29.9829C25.7776 37.7456 32.4762 39.5869 34.6149 39.5842C36.1349 39.5829 37.2256 39.2536 37.9429 38.2362C38.3909 37.6002 39.7096 35.6736 39.7096 35.6736C40.2296 34.9229 40.0296 33.8922 39.2669 33.3882Z" fill="white"/>
</g>
<defs>
<clipPath id="clip0_731_3159">
<rect width="48" height="48" fill="white"/>
</clipPath>
</defs>
</svg>
