<svg width="50" height="50" viewBox="0 0 50 50" fill="none" xmlns="http://www.w3.org/2000/svg">
<g id="telegram/Variant9">
<path id="bg" d="M42.083 0H7.79314C3.48911 0 0 3.48911 0 7.79314V42.083C0 46.387 3.48911 49.8761 7.79314 49.8761H42.083C46.387 49.8761 49.8761 46.387 49.8761 42.083V7.79314C49.8761 3.48911 46.387 0 42.083 0Z" fill="url(#paint0_radial_7_29)"/>
<path id="telegram" d="M12.6248 24.4833C19.319 21.5667 23.7829 19.6439 26.0164 18.7149C32.3935 16.0625 33.7186 15.6017 34.5823 15.5863C34.7723 15.5831 35.197 15.6302 35.4722 15.8535C35.7045 16.042 35.7684 16.2966 35.799 16.4753C35.8296 16.6541 35.8676 17.0612 35.8374 17.3793C35.4918 21.0104 33.9965 29.8219 33.2357 33.8887C32.9139 35.6095 32.28 36.1865 31.6664 36.243C30.3329 36.3657 29.3203 35.3617 28.0287 34.5151C26.0077 33.1902 24.8659 32.3655 22.9041 31.0727C20.6369 29.5787 22.1066 28.7575 23.3987 27.4155C23.7368 27.0643 29.6123 21.7201 29.7261 21.2353C29.7403 21.1747 29.7535 20.9487 29.6192 20.8293C29.4849 20.71 29.2868 20.7508 29.1438 20.7832C28.9411 20.8292 25.7124 22.9633 19.4577 27.1853C18.5413 27.8146 17.7112 28.1213 16.9675 28.1052C16.1476 28.0875 14.5704 27.6416 13.3979 27.2605C11.9599 26.793 10.8169 26.5459 10.9164 25.752C10.9683 25.3385 11.5377 24.9156 12.6248 24.4833Z" fill="white"/>
</g>
<defs>
<radialGradient id="paint0_radial_7_29" cx="0" cy="0" r="1" gradientUnits="userSpaceOnUse" gradientTransform="translate(41.3084) rotate(108.171) scale(52.4939)">
<stop stop-color="#2CB0F2"/>
<stop offset="1" stop-color="#0088CC"/>
</radialGradient>
</defs>
</svg>
